<?xml version="1.0" encoding="utf-8"?>
<!-- Generator: Adobe Illustrator 27.6.1, SVG Export Plug-In . SVG Version: 6.00 Build 0)  -->
<svg version="1.1" id="Capa_1" xmlns="http://www.w3.org/2000/svg" xmlns:xlink="http://www.w3.org/1999/xlink" x="0px" y="0px"
	 viewBox="0 0 1200 1200" style="enable-background:new 0 0 1200 1200;" xml:space="preserve">
<style type="text/css">
	.st0{fill:#FEFDF8;}
	.st1{fill:#EEF5E8;}
	.st2{fill:#6D6D6D;}
	.st3{display:none;fill:#6D6D6D;}
	.st4{display:none;}
	.st5{fill:none;}
	.st6{display:inline;}
	.st7{font-family:'ArialMT';}
	.st8{font-size:12px;}
	.st9{display:inline;fill:#6D6D6D;}
	.st10{font-family:'Poppins-Regular';}
	.st11{font-size:74px;}
	.st12{letter-spacing:445;}
	.st13{fill:#6D6D6D;enable-background:new    ;}
</style>
<g id="Background">
	<rect y="0" class="st0" width="1200" height="1200"/>
</g>
<ellipse class="st1" cx="606" cy="594.4" rx="334.6" ry="334.6"/>
<g>
	<path class="st2" d="M711.3,713.9c1-3.1-0.1-6.3-3.1-9.3c-15.9-16-34.5-29.5-55.1-40.2c-32.5-16.9-68.4-26.1-104.6-26.6
		c6.1-2.3,12.2-4.6,18.2-6.8c15.4-5.7,31.3-11.6,46.7-18.1c16.7-7,31.8-14.5,45.4-22.4v0c1.7,6.9,9.3,11.7,19.8,12.4
		c12,0.9,23.9,1.3,35.8,1.3c48.3,0,96.1-7.2,142.5-21.5c1.3-0.4,2.4-1.3,3.1-2.5c1.5-2.8,1.6-5.9,0.2-8.7c-2.3-4.8-8.5-7.9-13.5-8.8
		l0,0c-39.1-7-79.1-7.9-118.8-2.8c-3.1,0.4-6.6,0.8-10.4,1.2c-6.5,0.7-13.7,1.4-20.7,2.6c16.9-14.6,29.9-30.5,39.3-48
		c15.9-29.8,21.1-64.7,25.7-95.4c0.3-1.8-0.4-3.5-1.7-4.7c-1.3-1.2-3.1-1.6-4.9-1.2c-61.1,15.6-106.9,79.5-102.1,142.4
		c0.5,6.6,1.8,14.7,6.8,20.7c-14.8,9.2-31.7,17.7-50.7,25.7c-10.8,4.5-21.8,8.7-32.8,12.8c0.2-0.2,0.3-0.4,0.5-0.6
		c7.2-8.6,16.1-15.8,22.5-25.1c10.7-15.5,13.3-35.5,11-54.2s-9-36.6-15.7-54.2c-5.6-14.8-11.2-29.5-16.8-44.3
		c-9,1.1-14.8,10-18.3,18.3c-8.2,20-9.9,42.1-9.4,63.7c0.7,26.4,4.5,52.7,11.5,78.2c1.7,6.1,3,13.3,5.8,18.9
		c0.4,0.9,0.8,1.6,1.2,2.2c-2,0.7-3.9,1.5-5.9,2.2c-23.2,8.6-47,17.5-69.8,28.5c3.1-6.2,5.2-13,6.4-18.1c3.6-14.6,3.1-30.4-1.2-44.7
		c-10.2-33.3-37.4-56.6-58.4-70.3c-1.9-1.2-5.8-3.8-10.4-2.6c-3.6,0.9-7.9,4-8.3,13.6l-2.2,51.7c-0.4,10.4-0.9,21.2,1.1,31.9
		c2.5,13.8,15.6,39.9,32.7,50.9c3.2,2.1,6.4,3.5,9.6,4.3c-20.3,12.7-39,28-55.5,45.5c-10.2,10.8-24.4,27.6-29.8,48.2
		c-0.7,2.8,0.9,5.7,3.8,6.5c0.5,0.1,0.9,0.2,1.3,0.2c2.3,0,4.5-1.6,5.1-3.9c3.7-14,12.1-27.5,27.3-43.6c6.2-6.5,12.6-12.8,19.4-18.7
		c-0.2,0.7-0.4,1.4-0.5,2.1c-3.5,26.9,68.2,15.8,80.3,10.3c0.5-0.2,1.1-0.5,1.3-1c0.5-1.2-0.8-2.3-2-2.8
		c-8.3-3.8-49.7-21.3-69.3-16.7c8.5-6.8,17.5-13,26.8-18.7c10.4-6.4,21.3-12,32.5-17.2c-0.5,4,0.4,9.3,5.4,15.8
		c13.7,17.7,36.1,28.3,52.5,34.1c23.6,8.3,48.8,11.2,72.6,13.4c12.8,1.2,26.1,2.3,39.5,2.3c10,0,20.1-0.6,30-2.2
		C708.6,718.9,710.6,716.1,711.3,713.9z M745.8,428.5c-5.3,12.1-10.9,24.4-17.3,36.1c-3.6,6.6-7.6,13.1-11.4,19.4
		c-5.6,9.2-11.4,18.7-16.2,28.6c-2.2,4.6-4.5,9.4-6.7,14.2c-7.1,15.4-14.4,31.2-24,44.1c-0.3,0.2-0.7,0.5-1,0.7
		c-1-1-1.9-2.2-2.5-3.6c1.9-14.6,4.8-29.1,8.7-43.2c5.1-18,11.2-32.9,18.7-45.6c8.7-14.8,20.2-28,31.7-40.7
		C732,434.6,738.7,431.2,745.8,428.5z M750.1,426.9c-1.8,12.1-3.9,24.2-6.6,36.2c-20.3,32.1-40.3,64.8-59.6,97.5
		c-2.5,2-5,3.9-7.6,5.9c7.7-11.8,14-25.3,20.1-38.5c2.2-4.9,4.5-9.6,6.7-14.2c4.8-9.8,10.5-19.2,16.1-28.4
		c3.9-6.3,7.8-12.9,11.5-19.5c6.9-12.5,12.8-25.7,18.5-38.6C749.5,427.1,749.8,427,750.1,426.9z M679.4,592.3
		c-6.5-0.5-9.9-2.9-10.3-4.5c-0.1-0.2,0-0.5,0.1-0.8c44.9-6.1,90.6-9,135.8-8.7l2.5,0c10.6,0.1,21.4,0.1,31.8-1.6
		C787.2,591,733.5,596.3,679.4,592.3z M718.7,571.6c3.8-0.4,7.4-0.8,10.6-1.2c16.4-2.1,32.8-3.2,49.2-3.2c22,0,44,1.9,65.7,5.8
		c-11.8,2.8-24.4,2.7-36.6,2.6l-2.5,0c-44.6-0.3-89.6,2.6-133.8,8.5c0.8-0.8,1.8-1.6,3.2-2.5C684.6,575.1,703.5,573.2,718.7,571.6z
		 M726.8,510.7c-8.7,16.3-20.9,31.1-36.7,44.8c16.8-28.3,34.1-56.5,51.6-84.4C738.1,484.8,733.5,498.2,726.8,510.7z M716.4,444.8
		c-9.1,10.3-17.8,21.1-24.8,33.1c-7.6,12.9-13.8,28-19,46.3c-3.5,12.5-6.2,25.3-8.1,38.3c-0.4-2.2-0.7-4.4-0.8-6.4
		C660.5,513.4,682.3,470.4,716.4,444.8z M520.7,651.7c54,5.1,108,19.2,157.8,41.2c2,1.5,4,3,6,4.6c-8.3-0.8-16.2-1.1-24-1.4
		c-12-0.4-24.4-0.8-37.9-3.3c-27.9-5.2-56.7-10.6-84-20.1c-10-3.5-17.7-10.3-21.7-19C517.9,653,519.2,652.3,520.7,651.7z
		 M668.1,685.6c-44.8-18.5-92.8-30.8-140.9-35.9c3.1-0.7,6.5-1.2,10-1.3c2.5-0.1,5-0.1,7.5-0.1c35.7,0,71.4,8.7,103.5,25.5
		C655.1,677.4,661.7,681.4,668.1,685.6z M464.7,594.3c2.4,13.2,1.6,27,0.7,40.3c-0.4,6.4-0.8,13-0.9,19.6
		c-10.3-15.1-15.7-32.9-19.6-48.6c-6.7-26.6-10.8-53.9-12.4-81.2C448.4,540.3,458.9,563.2,464.7,594.3z M467.3,593.9
		c-5.1-27.4-13.9-48.5-26.6-64.2c6.2,4.4,12.8,9.7,19,15.7c17.9,33.5,21.9,74.7,11.1,111.2c-1.2,0.1-2.4,0.1-3.6-0.1
		c0-7.2,0.4-14.5,0.8-21.7C468.9,621.3,469.8,607.4,467.3,593.9z M488.4,589.8c3.8,12.5,4.2,26.4,1.1,39.1
		c-3.7,14.9-9.4,24.8-15.6,27c9.7-34.1,6.7-72.2-8.1-104.4C475.4,562.2,483.8,574.9,488.4,589.8z M430.7,609.2
		c-1.8-9.6-1.3-19.7-0.9-29.6l1.5-36.9c2.1,21.4,5.8,42.8,11,63.6c3.9,15.6,9.3,33.2,19.4,48.5c-1-0.5-2.1-1-3.1-1.7
		C444.7,644,433,621.4,430.7,609.2z M634.7,709.2c-23.1-2.1-47.6-4.9-70-12.8c-15-5.3-35.5-14.9-47.7-30.6c-2.1-2.7-4.3-6.4-3-9.1
		c0.2-0.4,0.5-0.7,0.8-1.1c4.4,9,12.5,16,22.9,19.6c27.5,9.6,56.4,15,84.4,20.2c13.7,2.6,26.2,3,38.3,3.4c9,0.3,18.1,0.6,27.8,1.8
		c3.5,3,7,6,10.2,9.2C677.5,712.8,656.4,711.2,634.7,709.2z M701,711.7l3.4-3.4l-3.1,4.4C701.2,712.6,701.1,712.2,701,711.7z"/>
	<path class="st2" d="M792.4,470c-8.6-2.6-19.6-0.8-25.4,4.1c-7.6,6.4-10.1,17.5-6.1,26.4c3.5,7.7,11.7,12.7,19.9,12.7
		c1.5,0,3-0.2,4.5-0.5c7.7-1.8,14.4-8.2,17.9-17c2.1-5.3,2.5-10.2,1.3-14.5C802.9,475.9,798.6,471.9,792.4,470z M793.3,491.8
		c-1.7,4.3-5.3,9.3-10.5,10.6c-4.7,1.1-10.3-1.7-12.4-6.2c-2.1-4.5-0.6-10.7,3.3-14c0,0,0,0,0,0c1.9-1.6,6-2.8,10.2-2.8
		c1.8,0,3.7,0.2,5.3,0.7c2.8,0.8,4.4,2.2,5,4C795,486.7,794.2,489.7,793.3,491.8z"/>
	<path class="st2" d="M825.1,545.6c3.7,3.2,8.6,4.9,13.6,4.9c3.1,0,6.1-0.6,9-1.9c2.7-1.2,4.9-2.8,6.6-4.8c3.7-4.3,4.8-10.7,3-16.6
		c-2.2-7.3-7-12.6-12.9-14.5c-5.9-1.9-12.4-0.4-18.3,4.1c0,0,0,0,0,0c-2.2,1.7-3.9,3.6-5.1,5.7C816.7,529.8,818.5,539.9,825.1,545.6
		z M830,527.9c0.5-0.9,1.4-1.8,2.5-2.7c3-2.4,6.1-3.2,8.6-2.4c2.6,0.8,4.8,3.6,6,7.5c0.7,2.4,0.4,5.1-0.9,6.6
		c-0.6,0.7-1.6,1.4-2.8,1.9c-3.8,1.7-8.5,1.2-11.4-1.3C829.3,535.2,828.4,530.7,830,527.9z"/>
	<path class="st2" d="M842,470.3c2,1.3,4.2,2.5,6.6,2.4c3.1-0.1,5.8-2.4,7.2-5.2c1.4-2.8,1.6-6,1.5-9.1c-0.4-12.1-17.4-7.6-20.2,1
		c-0.4,1.3-0.6,2.8-0.4,4.2C837.3,466.5,839.6,468.7,842,470.3z"/>
	<path class="st3" d="M226.6,481l-12.2-3.6c-7.7,26.2-12.8,53.3-15.1,80.5L212,559C214.3,532.6,219.2,506.4,226.6,481z"/>
	<path class="st3" d="M976.5,488.4c8.2,25.1,14,51.2,17.1,77.5l12.6-1.5c-3.2-27.1-9.1-54-17.7-79.9L976.5,488.4z"/>
</g>
<g id="Text" class="st4">
	<path id="SVGID_x5F_1_x5F_" class="st5" d="M972.6,592.5c0,203.8-165.2,369-369,369s-369-165.2-369-369c0-203.8,165.2-369,369-369
		S972.6,388.7,972.6,592.5z"/>
	<text transform="matrix(1 2.415770e-03 -2.415770e-03 1 602.7838 223.4431)" class="st6 st7 st8"> </text>
	<text transform="matrix(0.9972 7.522727e-02 -7.522727e-02 0.9972 606.1631 222.5777)" class="st9 st10 st11 st12">H</text>
	<text transform="matrix(0.1632 0.9866 -0.9866 0.1632 964.5014 513.061)" class="st13 st10 st11 st12">E</text>
	<text class="st7 st8"> </text>
	<g class="st6">
		<path id="SVGID_x5F_00000062898088967177754010000008227923916596897980_x5F_" class="st5" d="M820.5,963.2
			c200.6-121.8,264.5-383.2,142.7-583.8S580.1,115,379.5,236.8S115,619.9,236.8,820.5C358.6,1021.2,619.9,1085,820.5,963.2z"/>
		<text class="st7 st8"> </text>
	</g>
</g>
</svg>
